<?xml version="1.0"?>
<svg xmlns="http://www.w3.org/2000/svg" xmlns:xlink="http://www.w3.org/1999/xlink" class="" viewBox="0 0 26 26" width="512px" height="512px" version="1.1" enable-background="new 0 0 26 26"><g><path class="active-path" d="m 0.3 14 c -0.2 -0.2 -0.3 -0.5 -0.3 -0.7 s 0.1 -0.5 0.3 -0.7 l 1.4 -1.4 c 0.4 -0.4 1 -0.4 1.4 0 l 0.1 0.1 l 5.5 5.9 c 0.2 0.2 0.5 0.2 0.7 0 l 13.4 -13.9 h 0.1 v -8.88178e-016 c 0.4 -0.4 1 -0.4 1.4 0 l 1.4 1.4 c 0.4 0.4 0.4 1 0 1.4 l 0 0 l -16 16.6 c -0.2 0.2 -0.4 0.3 -0.7 0.3 c -0.3 0 -0.5 -0.1 -0.7 -0.3 l -7.8 -8.4 l -0.2 -0.3 Z" data-original="#000000" data-old_color="#000000" fill="#000000"/></g> </svg>
